/* XPM */
static char *a150d830a3e14cd8c28898b4614f456cwNr4X40D6kpXexI1[] = {
/* columns rows colors chars-per-pixel */
"84 84 217 2 ",
"   c None",
".  c #560C17",
"X  c #6C0F1E",
"o  c #660B1C",
"O  c #730C1C",
"+  c #7B0C1E",
"@  c #77071A",
"#  c #65111F",
"$  c #591724",
"%  c #7B0D20",
"&  c #750F21",
"*  c #6C1324",
"=  c #691E2D",
"-  c #731222",
";  c #7D1223",
":  c #731C2B",
">  c #7B192C",
",  c #6D202E",
"<  c #6B2031",
"1  c #792836",
"2  c #7A2938",
"3  c #187819",
"4  c #187424",
"5  c #357139",
"6  c #7E3A43",
"7  c #6C3C44",
"8  c #7D414A",
"9  c #830B1E",
"0  c #850916",
"q  c #9E111B",
"w  c #99071F",
"e  c #A70B1F",
"r  c #B0151F",
"t  c #830D22",
"y  c #8D0E22",
"u  c #940F23",
"i  c #9C0E22",
"p  c #861324",
"a  c #8D1326",
"s  c #891828",
"d  c #951023",
"f  c #9D1223",
"g  c #951529",
"h  c #9C152A",
"j  c #94192B",
"k  c #99192A",
"l  c #891D31",
"z  c #9C1830",
"x  c #A50E22",
"c  c #AB0D23",
"v  c #B30E24",
"b  c #BB0D25",
"n  c #B70F28",
"m  c #A41324",
"M  c #AB1224",
"N  c #A31529",
"B  c #AC142A",
"V  c #A4192C",
"C  c #AA182A",
"Z  c #B51325",
"A  c #BB1424",
"S  c #BB162A",
"D  c #B31C2C",
"F  c #B91A2B",
"G  c #B41529",
"H  c #A51A32",
"J  c #BA1C32",
"K  c #83283A",
"L  c #992335",
"P  c #93232C",
"I  c #A8232A",
"U  c #AA2734",
"Y  c #B82836",
"T  c #A6343D",
"R  c #B8333B",
"E  c #C40E28",
"W  c #C21326",
"Q  c #CB1625",
"!  c #C41A26",
"~  c #C5142A",
"^  c #CD152B",
"/  c #C41B2A",
"(  c #CD1B2B",
")  c #CC1925",
"_  c #D41625",
"`  c #D41A26",
"'  c #DB1D26",
"]  c #D3162B",
"[  c #D41A2B",
"{  c #DB1C2B",
"}  c #DA1728",
"|  c #E01D2D",
" . c #C4212B",
".. c #DE2227",
"X. c #DD232B",
"o. c #D1252A",
"O. c #C42B39",
"+. c #CB2C3B",
"@. c #D32432",
"#. c #C9343D",
"$. c #D8363B",
"%. c #E3252C",
"&. c #E52B2B",
"*. c #E92D2D",
"=. c #EA272F",
"-. c #E42632",
";. c #E42B31",
":. c #EC2C32",
">. c #EC2730",
",. c #F02D33",
"<. c #EB3433",
"1. c #ED3936",
"2. c #ED3C3A",
"3. c #E6373A",
"4. c #F13435",
"5. c #F03936",
"6. c #F23B39",
"7. c #F23638",
"8. c #EE423B",
"9. c #EF4A3E",
"0. c #F2423D",
"q. c #863744",
"w. c #963846",
"e. c #BC2F42",
"r. c #B9384D",
"t. c #DB3945",
"y. c #CE3641",
"u. c #E73941",
"i. c #F13E42",
"p. c #8E4452",
"a. c #8E4855",
"s. c #914D58",
"d. c #8A424F",
"f. c #B84657",
"g. c #B2434D",
"h. c #9C5B69",
"j. c #A05A66",
"k. c #B16871",
"l. c #CF4E50",
"z. c #C9484C",
"x. c #ED4C45",
"c. c #E94647",
"v. c #F34643",
"b. c #F34C43",
"n. c #F44C4A",
"m. c #F84546",
"M. c #F35345",
"N. c #F4534C",
"B. c #F45B4A",
"V. c #FB584E",
"C. c #E44C54",
"Z. c #F55453",
"A. c #F45C52",
"S. c #F85D5A",
"D. c #F35358",
"F. c #F46352",
"G. c #FB655C",
"H. c #F26B5A",
"J. c #FC6A5E",
"K. c #DD5B60",
"L. c #F25A63",
"P. c #C86D7F",
"I. c #EA6A6B",
"U. c #F46B63",
"Y. c #FB6B62",
"T. c #FB6460",
"R. c #F27769",
"E. c #FD746A",
"W. c #FB7B6E",
"Q. c #F87466",
"!. c #FD7575",
"~. c #F67A75",
"^. c #F27471",
"/. c #0F821A",
"(. c #178823",
"). c #0F9121",
"_. c #189528",
"`. c #1E8A30",
"'. c #138E28",
"]. c #20822D",
"[. c #269B3D",
"{. c #1FA232",
"}. c #22A32F",
"|. c #28A438",
" X c #35A747",
".X c #489548",
"XX c #45A74A",
"oX c #F0806F",
"OX c #F5857A",
"+X c #FA877A",
"@X c #C17A83",
"#X c #FB7F82",
"$X c #FE8C83",
"%X c #FF8E8A",
"&X c #F48A82",
"*X c #FC948C",
"=X c #FA968B",
"-X c #FF9E94",
";X c #FD9E9A",
":X c #FA9592",
">X c #FDA39B",
",X c #F5A694",
"<X c #FFACA3",
"1X c #FFA5A2",
"2X c #FFB5AD",
"3X c #FEB1A4",
"4X c #FFBDBC",
"5X c #FDCBBD",
"6X c #FBC5BB",
"7X c #FFD0BE",
"8X c #FEC8C7",
"9X c #FFD6CA",
"0X c #FFDAD8",
"qX c #FEE2D4",
"wX c #FEE9DB",
"eX c #FFEFE4",
"rX c #FFF4E3",
/* pixels */
"                                                                                                                                                                        ",
"                                                                                                                                                                        ",
"                                                                                                                                                                        ",
"                                                                                                                                                                        ",
"                                                                                                                                                                        ",
"                                                                                                                                                                        ",
"                                                                                                                                                                        ",
"                                                                                                                                                                        ",
"                                                                                                                                                                        ",
"                                                                                                                                                                        ",
"                                                                                                                                                                        ",
"                                                                                                                                                                        ",
"                                                                                                                                                                        ",
"                                                                                                                                                                        ",
"                                                                                                                                                                        ",
"                                                                                                                                                                        ",
"                                                                                                                                                                        ",
"                                                                                                                                                                        ",
"                                                                                                                                                                        ",
"                                                                                                                                                                        ",
"                                                                                                                                                                        ",
"                                                                                                                                                                        ",
"                                                                                                                                                                        ",
"                                                                          [.`.                                                                                          ",
"                                                                         X_.(.                                                                                          ",
"                                                                        |._./.                                                                                          ",
"                                                                       X{.)./.                                                                                          ",
"                                                                      |._./.3                                                                                           ",
"                                                                    XX}.(.3                 f.r.f.@X                                                                    ",
"                                                                    .X_.(.            e.Y D J D H L w.                                                                  ",
"                                                                    .X].4           O.+. .! ~ ~ v i y l P.                                                              ",
"                                                                      5           +.$.$.o.) Q ( S M i a L w.                                                            ",
"                                                                              Y O.$.3.3.X.` ) W A M i u 9 ; 2                                                           ",
"                                                                            C +.$.x.N.v.;.{ _ Q A r m m u 9 - K                                                         ",
"                                                                      q.g.z D $.N.G.J.N.3.| } _ W r M m f g @ : d.                                                      ",
"                                                                    k.l 9 N #.Z.Y.W.Q.Z.i.-.} _ Q A F x x f a O : s.                                                    ",
"                                                                    T 0 0 I C.!.+XW.Y.Z.i.;.{ ` ^ W Z M f f k p - q.                                                    ",
"                                                                g.Y q q I z.~.$X$XE.G.N.0.<.X.} ] ~ b v x m U s - 1                                                     ",
"                                                              O./  .F #.l.~.*X%X!.Y.G.M.0.<.%.} ] ^ E v e x f L ; # 8                                                   ",
"                                                            #.( @.u.C.I.&X=X*X+XE.J.A.M.8.<.-.{ [ ^ E b v v x V a O 6                                                   ",
"                                                          l.t.c.L.!.&X:X;X*X+XW.J.A.M.9.8.<.;.X.[ ^ ~ b v c x m g + :                                                   ",
"                                                          K.I.~.%X;X1X<X=XOXR.H.F.M.9.8.8.1.&.X.{ [ ^ W v c e i g 9 > j.                                                ",
"                                                          :X>X3X2X2X<X=XOXR.H.F.B.b.0.0.6.<.&.%.{ } ] ~ A M x f g @ & p.                                                ",
"                                                          9X9X9X5X2X-XOXR.H.F.B.M.b.0.0.5.4.&.%.' } ` ^ W Z m h j ; > s.                                                ",
"                                                        8XqXwXqX5X<X*XW.F.B.B.N.b.b.8.8.5.<.*.&...} _ Q W Z M h j % * p.                                                ",
"                                                        6XqXrXqX6X<X$XY.V.b.b.b.b.x.8.8.1.<.*.*.%.' _ Q W Z x f a ; - p.                                                ",
"                                                          0XeXwX5X,X+XJ.V.m.0.0.8.8.8.6.4.,.:.&.%.' _ ( W G x f s O X ,                                                 ",
"                                                        8X9X0XwX5X,XoXY.V.m.6.5.2.2.6.7.4.,.>.%.%.' _ Q A F m d p + X 1 k.                                              ",
"                                                          8X8X9X7X,XOXU.Z.m.6.4.5.6.6.4.:.>.%.%.{ ' { Q A G C d 9 + o * s.                                              ",
"                                                            4X5X6X3X&XU.A.b.6.<.6.6.4.:.=.%.%.X.X.` [ ~ Z B V y p ; O 1                                                 ",
"                                                            ;X2X2X<X=XR.A.b.2.1.5.6.<.>.%.%.%.X.X.[ [ / c B V y t s X 2                                                 ",
"                                                            :X>X<X>X+XW.Y.n.2.1.6.<.&.&.%.%.X.X.{ ` ) Z M C H y t - . 7                                                 ",
"                                                              *X-X-X+XW.Y.Z.8.1.6.<.&.%.%.%.%.X.} ] ( F m V h t & # $                                                   ",
"                                                                =X=X$XR.U.S.v.2.1.<.&.%.' ..{ { ` ^ ~ Z x N a % # =                                                     ",
"                                                                  %X*XOXU.G.n.8.2.<.*.%.' _ ` ] ^ W G x i y + o 1                                                       ",
"                                                                  I.!.%X!.G.N.x.v.1.<.%.' ` Q / S G B N y % # 6                                                         ",
"                                                                    L.L.!.S.Z.n.m.2.:.%.` Q A Z B C h a ; # a.                                                          ",
"                                                                      t.y.C.Z.Z.Z.m.-.{ ] ! F C V g p - * h.                                                            ",
"                                                                        U R #.t.t.t.@.^ ~ F B C k p * =                                                                 ",
"                                                                          w.I I I Y D B B c i u % * <                                                                   ",
"                                                                                T T L j g y t l = $                                                                     ",
"                                                                                        q.K >                                                                           ",
"                                                                                                                                                                        ",
"                                                                                                                                                                        ",
"                                                                                                                                                                        ",
"                                                                                                                                                                        ",
"                                                                                                                                                                        ",
"                                                                                                                                                                        ",
"                                                                                                                                                                        ",
"                                                                                                                                                                        ",
"                                                                                                                                                                        ",
"                                                                                                                                                                        ",
"                                                                                                                                                                        ",
"                                                                                                                                                                        ",
"                                                                                                                                                                        ",
"                                                                                                                                                                        ",
"                                                                                                                                                                        ",
"                                                                                                                                                                        ",
"                                                                                                                                                                        ",
"                                                                                                                                                                        ",
"                                                                                                                                                                        ",
"                                                                                                                                                                        ",
"                                                                                                                                                                        ",
"                                                                                                                                                                        "
};
