/* XPM */
static char *ddca1476f7be4efed26008a06262bbf1oFaEODfQGuigpHwm[] = {
/* columns rows colors chars-per-pixel */
"78 78 213 2 ",
"   c None",
".  c #5D111E",
"X  c #4C131C",
"o  c #6C0D1D",
"O  c #650E1D",
"+  c #730C1D",
"@  c #78081C",
"#  c #65111F",
"$  c #77111F",
"%  c #5E1822",
"&  c #7A0E20",
"*  c #700F21",
"=  c #661122",
"-  c #6A1A29",
";  c #721323",
":  c #7B1224",
">  c #761D2D",
",  c #5F202A",
"<  c #6C222F",
"1  c #7B2E3D",
"2  c #772A38",
"3  c #6E343D",
"4  c #177E1A",
"5  c #0F7F21",
"6  c #157523",
"7  c #38783B",
"8  c #840B1F",
"9  c #890B17",
"0  c #9A0B1A",
"q  c #A7141E",
"w  c #A40C1E",
"e  c #850E21",
"r  c #8B0E22",
"t  c #940C22",
"y  c #9D0E21",
"u  c #831323",
"i  c #8D1225",
"p  c #88192A",
"a  c #941224",
"s  c #9B1326",
"d  c #941629",
"f  c #9D1629",
"g  c #951B2B",
"h  c #9B1B2C",
"j  c #8F1C33",
"k  c #A30D21",
"l  c #AB0E24",
"z  c #B30E24",
"x  c #BB0D25",
"c  c #A31224",
"v  c #AD1224",
"b  c #A3142A",
"n  c #A4192A",
"m  c #AA192C",
"M  c #AB122A",
"N  c #B31325",
"B  c #BC1325",
"V  c #B41329",
"C  c #BB1428",
"Z  c #BC1B2C",
"A  c #B61B29",
"S  c #A21A31",
"D  c #BC1F36",
"F  c #832C3D",
"G  c #8B2B3B",
"H  c #992336",
"J  c #AB262C",
"K  c #B4222D",
"L  c #A72836",
"P  c #BB2838",
"I  c #B33237",
"U  c #C31425",
"Y  c #CC1626",
"T  c #CD1925",
"R  c #C4132A",
"E  c #CC152B",
"W  c #C31B2A",
"Q  c #CD1B2B",
"!  c #C21926",
"~  c #D51625",
"^  c #D21925",
"/  c #DA1C25",
"(  c #D2172B",
")  c #D41B2A",
"_  c #DA1C2B",
"`  c #C61E30",
"'  c #C30C28",
"]  c #E11E2E",
"[  c #C9212C",
"{  c #DE222B",
"}  c #D92429",
"|  c #C52A39",
" . c #C8333B",
".. c #DA353C",
"X. c #DA353A",
"o. c #D62E36",
"O. c #E2242B",
"+. c #E42A2B",
"@. c #EA2B2D",
"#. c #E5252B",
"$. c #E8312F",
"%. c #E52B33",
"&. c #EC2931",
"*. c #E92730",
"=. c #F02C33",
"-. c #EC3433",
";. c #EC3A36",
":. c #ED3D3B",
">. c #E13D3F",
",. c #F13235",
"<. c #F13836",
"1. c #F23B39",
"2. c #F23738",
"3. c #EE423B",
"4. c #ED483E",
"5. c #F1443D",
"6. c #F14C3D",
"7. c #853845",
"8. c #943141",
"9. c #B53743",
"0. c #B03C51",
"q. c #D43B47",
"w. c #CD3F47",
"e. c #E73942",
"r. c #F13D44",
"t. c #964B59",
"y. c #8B515A",
"u. c #AB565F",
"i. c #985661",
"p. c #B65E6E",
"a. c #AD626E",
"s. c #A06E74",
"d. c #D55559",
"f. c #D9454E",
"g. c #EF4542",
"h. c #E74747",
"j. c #F44643",
"k. c #F34B42",
"l. c #F24C49",
"z. c #F74645",
"x. c #F45346",
"c. c #F3534B",
"v. c #F55B4C",
"b. c #FC5048",
"n. c #EB4E52",
"m. c #F34A50",
"M. c #EA575B",
"N. c #F35452",
"B. c #F95A55",
"V. c #F55A57",
"C. c #F4614E",
"Z. c #F36353",
"A. c #FC655B",
"S. c #F46C5D",
"D. c #F86458",
"F. c #C15E64",
"G. c #D25F65",
"H. c #F35E65",
"J. c #E16162",
"K. c #FA6561",
"L. c #F26E64",
"P. c #FB6F64",
"I. c #EF776D",
"U. c #FE726B",
"Y. c #F5796D",
"T. c #FE7B6D",
"R. c #F57266",
"E. c #EC7674",
"W. c #FA7A73",
"Q. c #F96E72",
"!. c #0B821A",
"~. c #1C811E",
"^. c #158925",
"/. c #179626",
"(. c #1F9C37",
"). c #1B8D31",
"_. c #279537",
"`. c #2AA63A",
"'. c #35A23C",
"]. c #4E9C4D",
"[. c #FB8476",
"{. c #F4837C",
"}. c #F7887B",
"|. c #FC8A83",
" X c #FA8684",
".X c #FD938A",
"XX c #FE998D",
"oX c #F89287",
"OX c #FD9490",
"+X c #FE9C94",
"@X c #F0A38F",
"#X c #FCA294",
"$X c #FFA39E",
"%X c #FFAA9E",
"&X c #F7B19F",
"*X c #FFACA4",
"=X c #FFAEAA",
"-X c #FFA6A3",
";X c #FEB4AC",
":X c #FFBBAC",
">X c #FBBEB1",
",X c #FFC5BB",
"<X c #FCCAB9",
"1X c #FFBDC0",
"2X c #FECAC8",
"3X c #FDD1C4",
"4X c #FEDACD",
"5X c #FCD4CC",
"6X c #FFD5D5",
"7X c #FFEBDB",
"8X c #FEE4D5",
"9X c #FFEBE1",
"0X c #FFF5E4",
/* pixels */
"                                                                                                                                                            ",
"                                                                                                                                                            ",
"                                                                                                                                                            ",
"                                                                                                                                                            ",
"                                                                                                                                                            ",
"                                                                                                                                                            ",
"                                                                                                                                                            ",
"                                                                                                                                                            ",
"                                                                                                                                                            ",
"                                                                                                                                                            ",
"                                                                                                                                                            ",
"                                                                                                                                                            ",
"                                                                                                                                                            ",
"                                                                                                                                                            ",
"                                                                                                                                                            ",
"                                                                                                                                                            ",
"                                                                                                                                                            ",
"                                                                                                                                                            ",
"                                                                                                                                                            ",
"                                                                                                                                                            ",
"                                                                                                                                                            ",
"                                                                                                                                                            ",
"                                                                                                                                                            ",
"                                                                                                                                                            ",
"                                                                                                                                                            ",
"                                                                                                                                                            ",
"                                                                                            ].'.`.`.`.(.(._.                                                ",
"                                                                  d.f.q.w.G.              7 _./././././.^.).                                                ",
"                                                            3X5X;X XM...[ [ 9.            7 6 ^.~.4 !.!.5                                                   ",
"                                                        5X5X7X7X3X*X{.M...[ A I F.u.7.                                                                      ",
"                                                      2X6X9X0X7X4X,X$X XH.e.W q 9 u G p.                                                                    ",
"                                                      1X6X9X8X4X3X,X;X-X XH.f.K 0 9 a h L                                                                   ",
"                                                    =X2X4X8X3X>X;X*X*X=X$X.XE.d.I J K K A P P                                                               ",
"                                                  +X;X,X<X<X&X#X+X.XoXoX+X$XOX XE.J.M.n.e.X. .| |                                                           ",
"                                                  +X*X:X:X@X}.[.T.T.Y.Y.{.|..XXX.X|. XU.A.c.h.X...| P                                                       ",
"                                                XX#X%X%X#X}.R.A.D.D.Z.S.L.Y.W.[.[.|.}.T.T.P.V.g.X.o.| P                                                     ",
"                                                .X+XXXoX{.L.D.B.b.x.x.C.Z.Z.S.P.U.U.U.U.R.S.N.:.} [ ! Z L                                                   ",
"                                              {..X|.[.Y.L.V.c.z.z.5.k.v.v.v.v.Z.A.A.A.D.V.N.r.%.} T Y Q D 0.                                                ",
"                                              Q.OXI.R.P.D.c.j.1.1.1.j.x.x.x.x.x.c.v.v.c.z.r.%.] ) T Y R V 9.                                                ",
"                                            M.Q.|.L.K.B.l.3.1.<.<.1.5.j.j.j.j.5.4.6.6.5.;.%.] _ ~ Y U R l H                                                 ",
"                                            q.Q.U.K.B.l.:.;.;.;.<.:.3.g.4.5.5.5.3.3.;.-.@.{ / ~ T U B V k H a.                                              ",
"                                            | M.K.B.l.:.;.1.1.1.1.1.:.3.3.3.1.1.:.;.-.*.O./ ) T U N v k t u                                                 ",
"                                          L  .n.N.l.g.:.;.1.1.1.1.2.1.1.1.;.<.<.-.%.#.] _ ( E U N q c y a H                                                 ",
"                                            I n.m.l.g.;.-.-.$.-.-.,.,.,.,.-.-.@.+.O.{ _ ) E R B Z v c a r 0.                                                ",
"                                            J h.N.j.:.-.$.+.+.+.@.&.&.=.=.@.@.+.} _ / ) ( E x z l k c t @ G                                                 ",
"                                            J ..m.r.-.-.+.O.O.O.O.#.*.*.&.@.@.O./ / _ ( R ' x v c 0 s r : 7.                                                ",
"                                            L P >.%.%.+.O./ { O.O.O.O.#.#.#.#.O./ _ ) E B x z w c s h @ >                                                   ",
"                                            H m R _ _ / / / { O.{ { { { { O.O./ ~ ( E R z z z k n h u + 1                                                   ",
"                                            8.f V E ( T T ^ / { { } } / / / / ~ T Y R C z v l 0 L p $ >                                                     ",
"                                              d M C ` ! B Q ( _ _ ) ) _ _ _ ^ T U U C z l k l n g $ ; 2                                                     ",
"                                              p t k V A V C E E ( ( T ) Q Y U C C C N c k 0 b d u ; F                                                       ",
"                                              F e t c m c v C R E Q ! ! C B C Z V v c c s s a 8 + %                                                         ",
"                                                p p e g f b M V V V N v l v V m c 0 s h g r 8 & 2 y.                                                        ",
"                                                  - = : u d f b k k c b m m n s a d i u u @ @ F s.                                                          ",
"                                                      - = ; u i t s b S S a 9 r e u & + ; > F                                                               ",
"                                                          2 # * & e i r r 8 e u $ + o ; 7.i.                                                                ",
"                                                              7.- o + @ & : p : + o - 1                                                                     ",
"                                                                  y.< . # # O o o - i.                                                                      ",
"                                                                        3 X , 1 t.t.                                                                        ",
"                                                                                                                                                            ",
"                                                                                                                                                            ",
"                                                                                                                                                            ",
"                                                                                                                                                            ",
"                                                                                                                                                            ",
"                                                                                                                                                            ",
"                                                                                                                                                            ",
"                                                                                                                                                            ",
"                                                                                                                                                            ",
"                                                                                                                                                            ",
"                                                                                                                                                            ",
"                                                                                                                                                            ",
"                                                                                                                                                            ",
"                                                                                                                                                            ",
"                                                                                                                                                            ",
"                                                                                                                                                            ",
"                                                                                                                                                            ",
"                                                                                                                                                            ",
"                                                                                                                                                            "
};
