/* XPM */
static char *c2da15a7e8834fc5e78dd0867006fb31xPLhcEOVs7YUL02a[] = {
/* columns rows colors chars-per-pixel */
"35 60 209 2 ",
"   c None",
".  c #0F110D",
"X  c #11120F",
"o  c #1C1D1A",
"O  c #171915",
"+  c #201F1E",
"@  c #23231D",
"#  c #2E2C2B",
"$  c #2A2927",
"%  c #342E28",
"&  c #38352C",
"*  c #322F33",
"=  c #333132",
"-  c #503D2D",
";  c #463D35",
":  c #474236",
">  c #594730",
",  c #6D523A",
"<  c #74623F",
"1  c #393740",
"2  c #453F4E",
"3  c #484944",
"4  c #514E43",
"5  c #5E594D",
"6  c #5A5555",
"7  c #5D5E5B",
"8  c #554D5D",
"9  c #695D4C",
"0  c #6A5A56",
"q  c #7A5942",
"w  c #6D6246",
"e  c #6D6151",
"r  c #6C635A",
"t  c #726654",
"y  c #746954",
"u  c #7B6C56",
"i  c #756959",
"p  c #7C6C5B",
"a  c #77665B",
"s  c #7F705C",
"d  c #766743",
"f  c #595663",
"g  c #665C61",
"h  c #787060",
"j  c #6E6B74",
"k  c #6B6865",
"l  c #945E3E",
"z  c #93483A",
"x  c #A95F3F",
"c  c #AE4C39",
"v  c #87663D",
"b  c #99793F",
"n  c #AA793C",
"m  c #BB7939",
"M  c #AA663A",
"N  c #835D43",
"B  c #8A5950",
"V  c #A15244",
"C  c #836D44",
"Z  c #926342",
"A  c #9C6D4A",
"S  c #956B4A",
"D  c #987648",
"F  c #806D57",
"G  c #83725D",
"H  c #867359",
"J  c #957856",
"K  c #8C7748",
"L  c #A06642",
"P  c #A4744C",
"I  c #A97A44",
"U  c #B97942",
"Y  c #A67951",
"T  c #AB7D53",
"R  c #916A62",
"E  c #867561",
"W  c #897763",
"Q  c #8C7A65",
"!  c #937D6B",
"~  c #977F63",
"^  c #957B72",
"/  c #B9776A",
"(  c #C15A44",
")  c #C26146",
"_  c #B58039",
"`  c #C88B3C",
"'  c #D68436",
"]  c #DA9338",
"[  c #E59531",
"{  c #DEA23D",
"}  c #A98348",
"|  c #B88647",
" . c #BE9040",
".. c #AC8759",
"X. c #B28254",
"o. c #BD8E5C",
"O. c #B69554",
"+. c #948169",
"@. c #99846C",
"#. c #9A856A",
"$. c #9A8673",
"%. c #998973",
"&. c #A28A6D",
"*. c #A2866B",
"=. c #B7946A",
"-. c #A38C71",
";. c #AA8F71",
":. c #AB9374",
">. c #AB947A",
",. c #AE997C",
"<. c #A59179",
"1. c #B09975",
"2. c #B19678",
"3. c #B49B7C",
"4. c #BB9E7E",
"5. c #BB9974",
"6. c #BAA17B",
"7. c #B9A176",
"8. c #C48844",
"9. c #CA9848",
"0. c #D89E45",
"q. c #CA9B56",
"w. c #CC8E5C",
"e. c #E69B55",
"r. c #DBA44D",
"t. c #DCB45C",
"y. c #EBAB50",
"u. c #C39D76",
"i. c #C99174",
"p. c #C6A278",
"a. c #D3AB7A",
"s. c #D9B47A",
"d. c #DAAC65",
"f. c #E6A366",
"g. c #E6AA64",
"h. c #E9B777",
"j. c #9D968D",
"k. c #938E98",
"l. c #A99481",
"z. c #A99982",
"x. c #B59C83",
"c. c #B99E80",
"v. c #A69F96",
"b. c #BDA484",
"n. c #BBA68B",
"m. c #AEA398",
"M. c #B6A697",
"N. c #B8B09E",
"B. c #AFA7A0",
"V. c #B6ADA4",
"C. c #BBB8BA",
"Z. c #B5B0AE",
"A. c #C1A685",
"S. c #C2A985",
"D. c #C4AB8B",
"F. c #C8A886",
"G. c #CCB38A",
"H. c #D4B58A",
"J. c #D9B787",
"K. c #C5AE96",
"L. c #C8B499",
"P. c #D6BF9A",
"I. c #E3B886",
"U. c #C4B6A6",
"Y. c #C4B8AB",
"T. c #D3BEA1",
"R. c #C7BFB2",
"E. c #DDC194",
"W. c #D8C29A",
"Q. c #E9C58D",
"!. c #E7C994",
"~. c #E5C799",
"^. c #D5C4A9",
"/. c #CAC1B8",
"(. c #D2C6BA",
"). c #DBCBBD",
"_. c #D8C9B6",
"`. c #E5CDA1",
"'. c #EAD4A8",
"]. c #EBDBBB",
"[. c #E5D5B6",
"{. c #CCC6C5",
"}. c #CBCBC9",
"|. c #CEC9C6",
" X c #D4CBC3",
".X c #D2CCCA",
"XX c #D8CBC1",
"oX c #DBD3CB",
"OX c #DAD9D6",
"+X c #DEDBD9",
"@X c #D8D4D5",
"#X c #ECDCC4",
"$X c #E6DCC8",
"%X c #E3DFDA",
"&X c #E5DAD6",
"*X c #F2E6CD",
"=X c #E9E2D8",
"-X c #F2E8D2",
";X c #F2E9DB",
":X c #F1E5DC",
">X c #DEDEE0",
",X c #E9E6E6",
"<X c #EAE9E7",
"1X c #E9E6E9",
"2X c #EAEAEA",
"3X c #E5E5E7",
"4X c #F1EDEC",
"5X c #ECF0EB",
"6X c #F3F4F2",
/* pixels */
"q.                                                                    ",
"D 8.} O.                                                              ",
"    O.r.U 8.O.                                                        ",
"    n t.9.` 9.` m 8.s.                                                ",
"    I q.E.] | 9._ { [ 9.f.q...                                        ",
"    K   d.              y.y.0.U.                                      ",
"        q.                U 8.'                   < >                 ",
"        X.).                m ` I.            N P A T Z               ",
"        6Xv.                  m ' w.          T P X.P Y N             ",
"        {.I w                   0.H.          A S P T Y Z             ",
"        K.(...g.    m.            r.U         J J.e.o.S Z             ",
"            h.K Q.4.m.:X            M         *.h.e.e.X.l             ",
"              8.  V.4X4X#Xr oX7.    v           _.e.e.g.q             ",
"      _.      b C   .X^.J.4 4X~.E.*X$X'.I.P.*X-X`. Xe.p.V.            ",
"        }.    +X#X    (.=.$.%X=.s.!.`.[.'.[.*X;X-Xa i.^  Xs.J.        ",
"                 .Y.          |.      : =.J.[.].^.4X/ .X/.[.-X-X      ",
"                m y             ).    v     H.^.z.6XB ,X;X#X;XoXp.    ",
"                >.}                 4X%X.X=XS.G.j.&X/ @X$X].].H.L.    ",
"                  Z.&X                #     & @ 3X<X,X4X(.W.s.~.L.    ",
"                    >                 ,     5 3 2X6Xi.R S.E.=.J.F.    ",
"                    | +.              l     u 5 o 7 5XV =.Q.J ~.p.    ",
"                      M               -     n.<X<X; X O . F w $Xp.    ",
"                    =Xx                     R.6X6X.X+X|.; c % a.T.    ",
"                        n                   <X6X6X<X6X1XN.) z H.H.    ",
"                      (.L                   1X2X6XoX|.Y.OXN.( , =.    ",
"                        4X&X                }.+X1XOXOX@X/.o [.&.o     ",
"                          F.                @ @ k : # h @ @ 9 #X~     ",
"                          |               b.A.G G +.2.2.Q Q 5.u [.5.  ",
"                          d v             D.G.:.&.3.3.2.:.G   a.u.E.  ",
"                            _             D.D.4.<.>.2.@.Q y   E.J.    ",
"                            I             A.&.>.~ @.@.3.t p   G.u.    ",
"                            J <           b.b.>.@.i c.b.Q Q   Q.f.    ",
"                            _.D           x.-.<.@.p b.S.Q E   a.I.    ",
"                            v.$.w         x.3.;.H t S.c.G u           ",
"                              1XB.        n.A.W +.  b.c.s p           ",
"                                /.        z.x.+.+.  3.x.Q y           ",
"                                  y         4.#.W   :.3.-.e           ",
"                                  I         4.#.+.e 2.b.,.t           ",
"                                  C         b.@.&.  4.4.3.y           ",
"                                  Y.m       S.>.+.p 2.6.4.u           ",
"                                  _.`       b.b.-.E   A.3.Q           ",
"                                1X{.  }     S.<.-.9   7.7.p           ",
"                              .X3X    |     ,.Q ! r   7.b.u           ",
"                             XXX        |     ! p i   b.4.p           ",
"                            >X          C     Q W t   b.x.G           ",
"                                          D   %.@.p   A.6.F           ",
"                                        1X%X  >.>.+.  b.b.p           ",
"                                  M.oX&X    | M.l.<.  b.1.W           ",
"                            K.L.^.).        D ! l.C.1X@X1.G           ",
"                                              & % ! }.1X<Xj.U.K.      ",
"                                              n.a o   ! U.3     m.    ",
"                                              K.E W   x.D.Q           ",
"                                              K.x.$.  x.D.E           ",
"                                              ,.x.!   x.x.p           ",
"                                              ,.$.Q   x.x.p           ",
"                                              ,.E p   i <.i           ",
"                                              %.9 9   o X             ",
"                                              C.= 6   f $ #           ",
"                                            g Z.6 f   2 8 k.$         ",
"                                            j + # 0     k.1 j *       "
};
