/* XPM */
static char *e104f9a317394a63cb63d403fb51d128ef8ud3fWBnienWV0[] = {
/* columns rows colors chars-per-pixel */
"35 60 242 2 ",
"   c None",
".  c #1C1613",
"X  c #1E0A09",
"o  c #261709",
"O  c #261208",
"+  c #2F2915",
"@  c #382925",
"#  c #3B2A38",
"$  c #3C3837",
"%  c #473722",
"&  c #4F3634",
"*  c #4E2F12",
"=  c #594516",
"-  c #784C16",
";  c #484929",
":  c #554C2C",
">  c #5A4529",
",  c #484837",
"<  c #5A4C38",
"1  c #455239",
"2  c #59563A",
"3  c #654A2F",
"4  c #6B552B",
"5  c #64533B",
"6  c #6A5A3B",
"7  c #77593A",
"8  c #7C5B2C",
"9  c #78682F",
"0  c #776239",
"q  c #656D3F",
"w  c #555848",
"e  c #544E4C",
"r  c #6B5C44",
"t  c #665944",
"y  c #735B45",
"u  c #665958",
"i  c #735D50",
"p  c #4D6A49",
"a  c #5A674A",
"s  c #5E724D",
"d  c #5D6553",
"f  c #5E6A53",
"g  c #546B51",
"h  c #5A7456",
"j  c #6D6D43",
"k  c #636B4B",
"l  c #666748",
"z  c #7B6A4E",
"x  c #756748",
"c  c #6B724E",
"v  c #76704B",
"b  c #646B54",
"n  c #6D6B52",
"m  c #67675B",
"M  c #786857",
"N  c #647355",
"B  c #65745B",
"V  c #6A7A5B",
"C  c #7D7355",
"Z  c #78765C",
"A  c #5B5163",
"S  c #695F6A",
"D  c #5C7767",
"F  c #766467",
"G  c #6C7A62",
"H  c #797B63",
"J  c #746A73",
"K  c #8D5A37",
"L  c #88662B",
"P  c #87643D",
"I  c #947738",
"U  c #AA753B",
"Y  c #955F45",
"T  c #856949",
"R  c #956B48",
"E  c #83744C",
"W  c #8B704D",
"Q  c #997449",
"!  c #876D57",
"~  c #926E52",
"^  c #827554",
"/  c #8D7353",
"(  c #83735B",
")  c #89745A",
"_  c #8C7A5C",
"`  c #887A57",
"'  c #9C7C5C",
"]  c #977857",
"[  c #A67748",
"{  c #B37A49",
"}  c #A87C56",
"|  c #826B66",
" . c #8D7C63",
".. c #867766",
"X. c #947B63",
"o. c #9B7C64",
"O. c #957864",
"+. c #966970",
"@. c #A27E67",
"#. c #A17F7A",
"$. c #72845A",
"%. c #6E8265",
"&. c #788667",
"*. c #7C847D",
"=. c #6F827D",
"-. c #968157",
";. c #8C8055",
":. c #AC854A",
">. c #B78745",
",. c #A98759",
"<. c #B28B50",
"1. c #B98855",
"2. c #B9935A",
"3. c #B3944C",
"4. c #898769",
"5. c #948363",
"6. c #9B8364",
"7. c #94836C",
"8. c #9B856C",
"9. c #978B6B",
"0. c #898B78",
"q. c #9B8A73",
"w. c #968775",
"e. c #889377",
"r. c #999379",
"t. c #999069",
"y. c #A6886A",
"u. c #B8986C",
"i. c #AA8C75",
"p. c #A19376",
"a. c #A3937B",
"s. c #A9947B",
"d. c #AB9878",
"f. c #B29B7C",
"g. c #B8977B",
"h. c #B08D6B",
"j. c #A9A17B",
"k. c #BAA27E",
"l. c #C28956",
"z. c #C79755",
"x. c #CA9A4F",
"c. c #D0A15B",
"v. c #C99965",
"b. c #C99A77",
"n. c #D69F68",
"m. c #CAAA67",
"M. c #C4A47B",
"N. c #DCA577",
"B. c #D8B472",
"V. c #D9AE6B",
"C. c #E7B67B",
"Z. c #678085",
"A. c #788484",
"S. c #9B8A85",
"D. c #9F9683",
"F. c #888497",
"G. c #9B9896",
"H. c #888C81",
"J. c #A39585",
"K. c #AD9C83",
"L. c #A79789",
"P. c #B39B83",
"I. c #BB9D8A",
"U. c #BB9A85",
"Y. c #B79E92",
"T. c #AB9C97",
"R. c #9DA088",
"E. c #9EA695",
"W. c #9BB695",
"Q. c #A8A488",
"!. c #B3A185",
"~. c #BDA284",
"^. c #B5A48B",
"/. c #BAA68D",
"(. c #A4A997",
"). c #BAAA93",
"_. c #B8A694",
"`. c #BAB89C",
"'. c #A4B098",
"]. c #9EB3A0",
"[. c #AEB8A9",
"{. c #B0A7A0",
"}. c #C69C84",
"|. c #DC9E88",
" X c #C0A58B",
".X c #C4AC8D",
"XX c #C9A788",
"oX c #DAAB89",
"OX c #D8B389",
"+X c #C3AD9A",
"@X c #C6AA94",
"#X c #C8B699",
"$X c #D7BA9A",
"%X c #C4B08D",
"&X c #E8B283",
"*X c #C3A7A5",
"=X c #CABCA6",
"-X c #D5BCA1",
";X c #C9BDB6",
":X c #D1B2B2",
">X c #E6BFA2",
",X c #BDC4AE",
"<X c #B5C8AC",
"1X c #CEC09D",
"2X c #E8C199",
"3X c #EEC78E",
"4X c #CCC4AA",
"5X c #DBCAAC",
"6X c #D7C5A8",
"7X c #C7C8B4",
"8X c #DDCDB4",
"9X c #D6C7B6",
"0X c #CAD6BC",
"qX c #D8D5B8",
"wX c #E7CBA8",
"eX c #E9D7BA",
"rX c #F8DABA",
"tX c #EFCBA8",
"yX c #FBE2BE",
"uX c #BAAEC4",
"iX c #D5CAC4",
"pX c #DAD5C6",
"aX c #D6D3D1",
"sX c #CECDC9",
"dX c #E8D8C8",
"fX c #E6DAD5",
"gX c #E2CEC5",
"hX c #D6E1CA",
"jX c #DFE0D2",
"kX c #E1E1CA",
"lX c #F3E3C4",
"zX c #FCE5C8",
"xX c #EAE8D8",
"cX c #F6E7D9",
"vX c #F0F3DE",
"bX c #D7E8EE",
"nX c #E8EAE4",
"mX c #F5EAE4",
"MX c #ECF7EB",
"NX c #FCF2EA",
"BX c #EEFBF8",
"VX c #F8F6F1",
/* pixels */
"                                                              L L - z.",
"                                                          m.L <.<.2.[ ",
"                                                      <.3.x.U V.2.0 9 ",
"                                            v.3XC.>.{ l.c.>.x.B.-.j.j ",
"                                      - >.z.m.z.c.c.{ v.>.2.3Xu.` Z n ",
"                                      &Xv.V.B.3.I L 8 I Q ,.M.4 4.b   ",
"                                    Q 1.l.:.= j         z W !.l a h   ",
"              7 } } '             = oX1.:.9             0 5Xr.l g     ",
"              } [ } } y.Z         h.l.[ 9             k E s.NXG.g     ",
"            ] [ { [ R / 2     2 OXoXb.,.q   f a s s q : 0 _ ;X[.g p   ",
"            Q U l.N.OX_ 2       [ v.` j a a d G.(.4X$XXXi.6X`.<Xg g   ",
"            8 1.n.N.OX6.Z     C Q R j a f E.0.mX{._.>XR $XK.k p W.h   ",
"            T XXb.b.tX/ 5.C < r z 6.d.^.pXd xXcXmX_.~ h.j.c w 1 0Xp   ",
"          ` .X~.XXwXwXyXrX$X8XeXzXlX6X6XNXe 4X4X9XH 0 -.; c r.7Xe.B   ",
"      p.6X.X5X7.I.T zXyXzXwX5XeX6X5X#Xs.dXw.4.qXR.Q.lXeXr.D.6X#Xe.    ",
"  m r.lXzXeX=X8Xw.cX6XrXeX#X!.% 4.v 5X8X4.n 4.k a `.p.^ 4.e.          ",
"  | ).eXlXeXzXcXM NXL.9X#X: C v 4.hX0XN f   h   k x 6.^               ",
"    +X#XeXeXeXgXS.fXD.=X`.qXqXkXvX,Xg         N n 5.h.                ",
"    -XwX%X6X6XcXcXcXcX+ + n n @ b 1 h       f Q.qX1X6X                ",
"    .X#Xk.wX/.| T.NXmX, b b l w k s       G , q.> f.                  ",
"    g.tXT -XP.M mXm . e G d d b s         N =X6.@.                    ",
"  3  XrXT / X O . $ nXMX'.w f 1 N         H 5 ~ }.                    ",
"    $XXX* y % iXfXaXMXMX7Xd B B N           3 R rX                    ",
"    %X$X7 O.*XcXVXnXMXMXxXb f B e.V         ' R b.                    ",
"    d.> ) +XgX;XsXaXVXxXxX, G   %.        y ~ tX|.                    ",
"      i.eX+ ;XpXaXaXnXkX7Xl &.          5 zXzXoX                      ",
"  l _ rXx o o ..@ , m o % t G           #XXXY                         ",
"  Q.eXT !.7. .J.J.w.Z ..^.).&.          6.y.K                         ",
"  4X~..X9.C J.J.Y.J.q.a.@X).&.          W R                           ",
"    OX$X  z  .7.K.P.s.P.@X).%.        7 ,.P                           ",
"  E M.OX  E x K.y.o.o.g.y.@X;         4 [ K                           ",
"  E M.2X  ;._ !.P./ o.g.XX!.&.      5.P }                             ",
"    wXOX  5.) +X^.! @.i.i.Q.$.    &.z ' rX                            ",
"      wX  / ) K._.z O.i.P.Q.&.    4.z g.2X                            ",
"          ' W K./.y o.@./.).&.    e.=XcXM.                            ",
"          ] ] f.K.t o.o.U.!.%.  &.r.6X5X                              ",
"          R y.f.s.r  .8.g.7.%.  ..z z 5.                              ",
"          ] u.~.K.r 8.6.U.s.%.%.5 O.5 4.                              ",
"          ] b.g.K.x r.8. X8.H V y ! (                                 ",
"        7 R g.~.K.( 5.s..X> Z H 8.#X .                                ",
"          ] }. Xa.C a.!./.) ^ : p.8X4X4.                              ",
"          ~ U.I.< r q.s.^._ ^ 5.: 4XxX0.                              ",
"          ' @XY.q.l  .7.K.6 6 t.c 4.kXpX*.                            ",
"          o.I.+Xq.x z X.K.6 t.v V &.0.sXaXA.                          ",
"          8.I.I.a.5  .8. .r v l     H.*.bXBX                          ",
"          _  X/.! ( 7.q.( ( ; a       =.Z.bX                          ",
"          -.k./.q.7.a.p.8.zXxXE.f G D   Z.                            ",
"          6.d.!.M L.J.).q.5 ,XhX0X'.].D Z.                            ",
"          w.J.pXmX;XL... .Z &.e.R.pX7X[.MX                            ",
"    0.9X=X_.cXxXiXH.@ t M Z   e.    (.,X                              ",
"    7XQ.pX..#X7.< o Z _.4.                                            ",
"          7.+XP. ...C `.                                              ",
"          9..X~.3 q.^.).                                              ",
"          r.P.g.% o.K.K.                                              ",
"          r.I.I.y X.7.).                                              ",
"          r.L.M i M .._.                                              ",
"          u X @ S.m | Y.                                              ",
"        e e & S   J F :X                                              ",
"          G.J A   S u *X+.                                            ",
"        F # uXF.F.S # & +.#.                                          "
};
