/* XPM */
static char *_74ce37114ea4b3ad778ec769dbf6c00OpR7sX3mxSPv23Tu[] = {
/* columns rows colors chars-per-pixel */
"50 60 221 2 ",
"   c None",
".  c #010102",
"X  c #0B0401",
"o  c #050A06",
"O  c #050909",
"+  c #0B0B0B",
"@  c #0A0807",
"#  c #120300",
"$  c #120A03",
"%  c #120E0A",
"&  c #190904",
"*  c #0D110D",
"=  c #13120D",
"-  c #1D130C",
";  c #1D1207",
":  c #0E1211",
">  c #131412",
",  c #1A1611",
"<  c #1D1913",
"1  c #1C1C1C",
"2  c #111811",
"3  c #090D10",
"4  c #240E03",
"5  c #22160D",
"6  c #25190D",
"7  c #2D1D0D",
"8  c #261306",
"9  c #341D0C",
"0  c #3B1E0A",
"q  c #321905",
"w  c #2C1D14",
"e  c #261C15",
"r  c #351D15",
"t  c #3D220E",
"y  c #34200F",
"u  c #27211A",
"i  c #332212",
"p  c #3E2511",
"a  c #38271C",
"s  c #1F2321",
"d  c #222422",
"f  c #282927",
"g  c #332D28",
"h  c #2D332E",
"j  c #323532",
"k  c #393A36",
"l  c #3D3E3B",
"z  c #333A35",
"x  c #2E312E",
"c  c #441D07",
"v  c #44250D",
"b  c #4C240B",
"n  c #4A2A0E",
"m  c #512D0F",
"M  c #452B13",
"N  c #4A2B13",
"B  c #4A2D1C",
"V  c #442A17",
"C  c #522B13",
"Z  c #572E17",
"A  c #4D3115",
"S  c #4C321B",
"D  c #54321B",
"F  c #5D331B",
"G  c #543213",
"H  c #6B3B1E",
"J  c #64361D",
"K  c #713A1B",
"L  c #622F14",
"P  c #542F23",
"I  c #463725",
"U  c #573828",
"Y  c #483D35",
"T  c #6B3C21",
"R  c #653C26",
"E  c #3D413A",
"W  c #5B432A",
"Q  c #42443E",
"!  c #48493D",
"~  c #584734",
"^  c #514A36",
"/  c #6D4224",
"(  c #66432D",
")  c #744224",
"_  c #7B492A",
"`  c #764528",
"'  c #7C532E",
"]  c #674C39",
"[  c #734B35",
"{  c #63533E",
"}  c #7B5332",
"|  c #775438",
" . c #3D4541",
".. c #434542",
"X. c #464A44",
"o. c #4A4B45",
"O. c #4C4D4A",
"+. c #474B4A",
"@. c #4D514C",
"#. c #4F5347",
"$. c #52534E",
"%. c #5A554B",
"&. c #585346",
"*. c #4D5351",
"=. c #545652",
"-. c #565B54",
";. c #5B5B55",
":. c #5C5E59",
">. c #565C5A",
",. c #5C4E41",
"<. c #645B4C",
"1. c #6B5D4B",
"2. c #675544",
"3. c #765B43",
"4. c #605E58",
"5. c #5D625C",
"6. c #5B6153",
"7. c #6A614D",
"8. c #61635D",
"9. c #6A6659",
"0. c #746858",
"q. c #7C715F",
"w. c #5F6461",
"e. c #646662",
"r. c #666A64",
"t. c #6A6C64",
"y. c #6C6D69",
"u. c #676965",
"i. c #726E64",
"p. c #726F68",
"a. c #6D7167",
"s. c #6D726C",
"d. c #72736D",
"f. c #7B766B",
"g. c #7D7A6D",
"h. c #767567",
"j. c #6D7472",
"k. c #6E7975",
"l. c #747671",
"z. c #757A74",
"x. c #7A7B75",
"c. c #747C78",
"v. c #7C7E7A",
"b. c #797671",
"n. c #99531F",
"m. c #834929",
"M. c #89572E",
"N. c #995522",
"B. c #99572A",
"V. c #824E33",
"C. c #825931",
"Z. c #825939",
"A. c #885734",
"S. c #945B36",
"D. c #A05E2C",
"F. c #9A643D",
"G. c #9B6439",
"H. c #8C603D",
"J. c #A36433",
"K. c #AB6B3C",
"L. c #A66739",
"P. c #B16E3B",
"I. c #B4723D",
"U. c #A4612C",
"Y. c #875D43",
"T. c #945E42",
"R. c #856344",
"E. c #9C6943",
"W. c #976542",
"Q. c #9E7B58",
"!. c #A46B44",
"~. c #A86D46",
"^. c #A9744A",
"/. c #B27244",
"(. c #B4764A",
"). c #B57B4C",
"_. c #BA7C4C",
"`. c #BA7743",
"'. c #B47C50",
"]. c #B97F51",
"[. c #AC764D",
"{. c #837968",
"}. c #827E74",
"|. c #807F7B",
" X c #C37E48",
".X c #7D827C",
"XX c #7A827A",
"oX c #B4845C",
"OX c #B48155",
"+X c #82837C",
"@X c #8B867C",
"#X c #888678",
"$X c #91887A",
"%X c #B18B6B",
"&X c #C7824C",
"*X c #C58253",
"=X c #CC8956",
"-X c #C68D60",
";X c #7B8381",
":X c #838582",
">X c #868984",
",X c #8A8B85",
"<X c #8C8E89",
"1X c #858B8A",
"2X c #938F86",
"3X c #8D918B",
"4X c #8A9082",
"5X c #93938D",
"6X c #949084",
"7X c #939691",
"8X c #969893",
"9X c #999B96",
"0X c #9A9C9A",
"qX c #879192",
"wX c #9CA19D",
"eX c #9EA197",
"rX c #A7A9A5",
"tX c #B3B5B0",
"yX c #C0BFBD",
"uX c #C3C3BA",
"iX c #CCCDCA",
/* pixels */
"                                          uXuXuXuXuXuXiXuX                                          ",
"                                        x.g.x.x.d.d.x.+X|.v.                                        ",
"                                      s.+Xx.5Xd.,X>X+Xx.z.d.z.                                      ",
"                                      5.x.>X+X+X.X+Xb.:.u.u.=.                                      ",
"                                      d.l.t.z.d.d.+Xx.;.d.=.                                        ",
"                                        -.3Xv..Xx.+Xx.r.z.O.                                        ",
"                                        5.t.z.v.d..Xa.d.x.;.x.                                      ",
"                                  wXu...5.l.z.x.t.>Xz.d.x.Q y.r.8XtX                                ",
"                            0Xv.>Xv.x.v.Q e.x.e.d.x.s.<Xs.$.,X>Xz.z.-.wX    +X:.                    ",
"                  x.:X8.9XrX4.|.b.u.8.r.l y.:Xx.v.+Xl.v.8.-.+Xd.z.s.7X@..X.X:X8Xs.                  ",
"                v.l.>Xd.O.;.5X+X}.|.+X+Xo.u.|.v.v.:X.Xx.y.s.:Xs.s.u.>X:.:.wX.X>Xz.s.                ",
"              l.l.>Xd.d.+Xi.;.@Xi.f.}.g.$.u.v.+X+Xv.v.y.5.s.x.l.z.s.5.5.v.,X<Xz.+X>X:.              ",
"              :Xv.e..X+Xt.#X&.0.$Xf.&.Y f g f e f s f s d ..5.z..X.X@.z.,X+X>X:X>X>Xe.              ",
"              y.u.>Xd.f.9.#X{.<.,.Y i 5 - - X . @ . . . . . + s z 5.@.3Xz.,Xu.v.:X8.rX              ",
"              y.+.+Xt.p.@Xf.0.I a a a w w - X @ . @ O + + . . o 2 h s..X:Xz.>X3X:.e.iX              ",
"              w.l.O.,X0.{.0.I W U U a r a 5 X X . + . . O . o . o . = =.d.x..XX.d.:.:X              ",
"            s.:X<X%.<.{.] W | } [ D N p i 6 X X . . . . . . . . . o @ * O.8.o.d.>X<X:.+X            ",
"          >Xd.+Xx.p.<.~ W / E.E._ F N t y 6 X . . . . . . . . . + @ . . @ l x.:Xv.:Xx.d.            ",
"          5.x.x.f.$X1.B 3.} ^.E._ F C t 9 6 X . . . . . . . . . . . @ + . 1 d.z.>X:X:X8.<X          ",
"        +Xo.d.x.}.#X~ ( %XH.!.F._ J Z v y 6 X X . . . . . . . . . + . + + @ k x.x.+X:Xu.X.          ",
"        u.;.8.9.}.0.W R.%XF.[.~._ J D v y 6 $ X . . . . . . . . + + . . > . + 8.|.u.=.:.=.          ",
"        d.v.f.9.0.3.3.Q.oXG.'.!.` J D v 9 6 $ X . . . . . . . . . . + + + + . u =.y.x.b.u.|.        ",
"      0Xy.d.+X$X{ | Q.Q.oXG._.S.) F D t 7 6 $ X . . . . . . . . @ . . . . @ + @ O.x.x.x.x.r.        ",
"      1Xs.d.i.q.3.| oXE.-XJ._.L.K F C 0 7 6 X . . . . . . . . . . + . . + . @ . Q v.e.b.y.y.        ",
"      e.:X.Xp.{.W H.OX~.=XJ.I.~.` Z v t 7 ; $ . . . . . . . . . . . . . . . . . f l.v.b.>Xd.rX      ",
"    iX@.@.$.9.1.N } [.J._.B.P.L.) F N B i w = X . . . . . . . . . . . . . . . . . $.e.$.=.O.8X      ",
"d.<XwX<X1X>X6X0.v ' [.J._.D./.!.) R N S i a < % . . . . . . . . . . . . . . . . . O.v..X>Xb.5XtX,Xx.",
"Q e.s.c.j.j.#X1.n A.].J.&XJ._.!.` R N V 8 a u , . . . . . . . . . . . . . . . . . ..b.x.<X:Xv.y.e...",
"p.3Xz.k.y.r.f.1.m A._.J.*XK.(.F.` R N t 8 u u 1 . . . . . . . . . . . . . . . . @ +.:Xx.v.+X+Xz.b.o.",
"#.+Xv.1XqX.Xf.2.m M.(.J.=XK.(.F.) F N t 7 e e , . . . . . . . . . . . . . . . . . X.,Xx.x.v.v.b.b.o.",
"9.+X.Xc.;Xv.}.1.G M._.P.=XL.^.F./ C N 0 i ; < % . . . . . . . . . . . . . . . . = =.<Xd.b.+X.Xv.d.o.",
"%.9.z.j.c.v.#X{ G M.OXI.=XJ.~.F./ n N q i $ , + . . . . . . . . . . . . . . . . . $.5Xz.x.x.d.b.u.Q ",
"=.t.t.d.5.a.g.1.A C._.`.=XB./.S.` C N q 7 e , $ . . . . . . . . . . . . . . . . . $.>Xz.r.d.y.t.:.=.",
"Q X.Q #.-.$.%.^ A C.).I.&XN./.F.) b v 4 8 - , = . . . . . . . . . . . . . . . . . j :.-.=.$.Q @.E k ",
"8XeX.Xo.t.t.t.^ N C.(.I. XN./.!.H b v 4 8 - < , . . . . . . . . . . . . . . . . . Q s.s.t.-.8.      ",
"      8.7X8X6X7.N C.).I. XN./.!.H b v q 7 6 < , . . . . . . . . . . . . . . . . . $.3X:X.X5.,X      ",
"    uX$.7X+Xg.1.M C.).I.&Xn./.!.H b v 9 a u < % . . . . . . . . . . . . . . . . . $.>Xz.v.5.,X      ",
"      o.,X>X+X0.M ' (.I.&XN./.E.) b v q i e - + . . . . . . . . . . . . . . . . . $.,Xl.v.5.<X      ",
"      k l.+X}.<.N C.(.I.&XB.(.!.` m N 9 i 5 % @ . . . . . . . . . . . . . . . . . o.>Xy.d.%.3X      ",
"      O.:X+Xf.1.A C.).I.=XU._.^.` C D t i ; $ X . . . . . . . . . . . . . . . . + o..X8.r.@.3X      ",
"      $.v.t.h.,.S ' ).I. XB.(.E./ C N p 7 5 $ . . . . . . . . . . . . . . . . . . Q z.s.r.O.>X      ",
"    tXX.:.o.4.~ D } '.P. XN.K.S.T C N p 7 5 X . . . . . . . . . . . . . . . . . . l y.;.-.@.3X      ",
"O.y.y.O.e.=.%.I S } '.I.*XB.!.S.T b M p 7 5 X . . . . . . . . . . . . . . . . . . k 5.@.:.@.O.y.t.:.",
"$.v.,X5X0X7X2X0.M ' '.K.*XB.L.S.H b v p 7 5 X . . . . . . . . . . . . . . . . . . @.5X>X5X3X+X>Xr.o.",
";.+Xb.x.d.x.x.2.M } '.K.*XB.S.m.T b v v r 5 X . . . . . . . . . . . . . . . . . . O..X:.8.d.z.x.b.@.",
"o.x.p.}.x.+X}.2.B Z.'.L.*XB.S.V.T b v p 7 ; X X . . . . . . . . . . . . . . . . + @.x.;.u.:X3X,Xd.o.",
"t.2Xx.@X+Xd.h.2.B Z.^.J.*XB.A.V.H c c t 7 ; . . . . . . . . . . . . . . . . . . . =.9Xv.d.x.+X+Xa.! ",
"4.+Xd.+X+Xu.i.1.B Z.~.B.(.m.m.` R c 0 9 7 & . . . . . . . . . . . . . . . . . . . O.3Xx.x.+X.Xd.s.O.",
":..Xz.>Xs.x.h.~ N Z.~.M.~.K m.T P V r 6 # X X @ . . . . . . . . . . . . . . . . . O.;Xv..X.X>Xs.u.;.",
"*.j.k.XXr.6.7.2.A } W.V.!.K ) J P r 8 & # X . . . . . . . . . . . . . . . . . o . X..Xl.s.r.l.s.+...",
"+.=.*.z @.#.^ ~ A } S._ T.L T U U r & # X X + . O O O O O O + + + + * * * : 2 2 s j ....w.O...X.Q ..",
"      -.XX4Xf.{ M | Y.) V.Z ( R a 4 X X . X + O O 3 : : > > < 1 d d f h h h h h f +..X>X>X:.        ",
"      ..s.+X#X7.M Y.Y.T [ F R B & $ $ % % + : + 1 s f x j k l               *.@.@.-..Xc..X*.>X      ",
"      @.z.s.f.7.V 3.| R [ U B 4 $ X % , = > d f z  .+.=.                      l.5.w.3Xz.c.-.7X      ",
"      -.+Xd.g.7.V 3.[ ( ] B r # - = < d f z +.*.>.w.j.                          z.:.:Xs.x.;.7X      ",
"      5.XXt.g.<.V 2.[ ( ~ 9 5 - g x Q 5.s.z..Xv.3X9X                            9X=.z.b.:X=.7X      ",
"      ..+X8.9.<.I 2.3.U   w e Y =.5.y.z.:X7XwXrXrX                                @.b.x.v.y.5X      ",
"      o.z.a.t.&.                                                                  =.y.:X<Xr.5X      ",
"      j z E !                                                                     $.l l ..k :X      ",
"                                                                                                    "
};
