/* XPM */
static char *d50d01a9c52643bcb36f0c39c1a2aef5JUawV4sfO6vAkZxN[] = {
/* columns rows colors chars-per-pixel */
"60 59 221 2 ",
"   c None",
".  c #1D0F11",
"X  c #15141C",
"o  c #1C141A",
"O  c #1D1A1D",
"+  c #181819",
"@  c #2A120F",
"#  c #2E0E10",
"$  c #2C1112",
"%  c #231C1B",
"&  c #2C1C1A",
"*  c #251219",
"=  c #351414",
"-  c #3B1411",
";  c #321A1D",
":  c #3C1D1C",
">  c #311619",
",  c #38100C",
"<  c #161521",
"1  c #1A1523",
"2  c #1B1B24",
"3  c #191728",
"4  c #1C1B2A",
"5  c #171828",
"6  c #1F1E31",
"7  c #231421",
"8  c #221D24",
"9  c #221D2C",
"0  c #2E1E27",
"q  c #3A1B22",
"w  c #301625",
"e  c #201E32",
"r  c #1D2529",
"t  c #242425",
"y  c #2D2222",
"u  c #24242A",
"i  c #29242C",
"p  c #26292D",
"a  c #2B2B2C",
"s  c #2E2E24",
"d  c #38272B",
"f  c #34322D",
"g  c #232233",
"h  c #2C2533",
"j  c #2D2D31",
"k  c #2A2C39",
"l  c #382A35",
"z  c #2E3033",
"x  c #2E313D",
"c  c #343434",
"v  c #34353A",
"b  c #36383C",
"n  c #3B3B3B",
"m  c #393937",
"M  c #2C3727",
"N  c #4E0F0F",
"B  c #44140E",
"V  c #4C120D",
"C  c #4C160B",
"Z  c #55140D",
"A  c #5C140B",
"S  c #581409",
"D  c #451515",
"F  c #4C1413",
"G  c #441A15",
"H  c #441C1A",
"J  c #4F171E",
"K  c #521411",
"L  c #5D1513",
"P  c #581A16",
"I  c #6B0E04",
"U  c #730E02",
"Y  c #7A0E04",
"T  c #641105",
"R  c #6C1303",
"E  c #64130A",
"W  c #6B140A",
"Q  c #6B1806",
"!  c #731203",
"~  c #7C1303",
"^  c #73140A",
"/  c #731B0C",
"(  c #7C1B0B",
")  c #7B160A",
"_  c #6C0F11",
"`  c #631C14",
"'  c #6E1B14",
"]  c #691614",
"[  c #761B13",
"{  c #771B13",
"}  c #68261C",
"|  c #78241A",
" . c #4E2620",
".. c #5A282C",
"X. c #582C34",
"o. c #41303E",
"O. c #462839",
"+. c #6B2A25",
"@. c #772D25",
"#. c #7F3124",
"$. c #633131",
"%. c #68302F",
"&. c #37563D",
"*. c #324933",
"=. c #40503F",
"-. c #5F543A",
";. c #7C6238",
":. c #2D2E40",
">. c #3C3D42",
",. c #383443",
"<. c #3B3850",
"1. c #473341",
"2. c #513942",
"3. c #3F4248",
"4. c #3D5543",
"5. c #414245",
"6. c #444549",
"7. c #47484C",
"8. c #494A4E",
"9. c #4F454C",
"0. c #475748",
"q. c #444B54",
"w. c #4B4D51",
"e. c #4A4955",
"r. c #4D5155",
"t. c #525356",
"y. c #535559",
"u. c #54585E",
"i. c #5C505B",
"p. c #5E5544",
"a. c #776C52",
"s. c #7A745A",
"d. c #4C5364",
"f. c #585C68",
"g. c #5C6569",
"h. c #5E6270",
"j. c #646E76",
"k. c #646B77",
"l. c #777A74",
"z. c #6C736E",
"x. c #821304",
"c. c #871708",
"v. c #9E1702",
"b. c #941905",
"n. c #9C1903",
"m. c #931B0C",
"M. c #9C1D0C",
"N. c #981707",
"B. c #8B1119",
"V. c #871815",
"C. c #971B13",
"Z. c #A31603",
"A. c #AB1603",
"S. c #A41902",
"D. c #AB1A04",
"F. c #A41C0A",
"G. c #AA1C09",
"H. c #A2150B",
"J. c #B41605",
"K. c #B31A04",
"L. c #B31A09",
"P. c #B91B06",
"I. c #A01B10",
"U. c #99230D",
"Y. c #88261A",
"T. c #972718",
"R. c #86230F",
"E. c #AC230A",
"W. c #A92409",
"Q. c #B4240D",
"!. c #B6250B",
"~. c #A42612",
"^. c #AB2C15",
"/. c #AB2F1A",
"(. c #B42A14",
"). c #BA2B15",
"_. c #B52712",
"`. c #B5341D",
"'. c #B73217",
"]. c #963224",
"[. c #9D3E30",
"{. c #802B27",
"}. c #B63825",
"|. c #AA3125",
" X c #C7381E",
".X c #C83A22",
"XX c #D23E27",
"oX c #B94532",
"OX c #CB442B",
"+X c #C24230",
"@X c #DD4831",
"#X c #DB5235",
"$X c #D1482A",
"%X c #E44A35",
"&X c #E15036",
"*X c #7F8065",
"=X c #8A8653",
"-X c #8E8A64",
";X c #737D88",
":X c #6B7285",
">X c #78828A",
",X c #7A8593",
"<X c #828F9F",
"1X c #8A9491",
"2X c #868E86",
"3X c #95A295",
"4X c #8B9BA5",
"5X c #8B99A9",
"6X c #939EA2",
"7X c #939AAA",
"8X c #97A7A8",
"9X c #9CABB6",
"0X c #98A8B6",
"qX c #9EB3BF",
"wX c #A5B2BC",
"eX c #9EACC4",
"rX c #A3B4C2",
"tX c #ACBDCB",
"yX c #A8BBC7",
"uX c #AEBFD5",
"iX c #AEC2CD",
/* pixels */
"                                                                                                                        ",
"                                                                                                                        ",
"                                                                                                                        ",
"                                                                                                                        ",
"                                                a                                                                       ",
"                                              a a                                     n n                               ",
"                                              a a                                   n c                                 ",
"                                          c v a a                                 n n a                                 ",
"                                        c n v a p v   t                         n n c                                   ",
"                                  v c 7.n >.v j j c   a     t                 n n c a                                   ",
"                                  5.>.6.5.6.b z a a j p a a u               c n n a                                     ",
"                                6.6.3.6.6.6.>.v j c a p j p u             n n n c a                                     ",
"                              n 7.w.7.7.6.6.5.b c >.z p p p u           c n n c a a                                     ",
"                              7.w.w.8.w.8.6.6.n >.>.v a p t a         c c n n c a                                       ",
"                            6.r.r.w.w.t.w.w.7.5.6.>.n a p t t t     c c n m n c u                                       ",
"  | B.B.                    5.r.r.w.w.u.y.t.w.8.8.>.b p p t t u   c c c c n c a                                         ",
"    B.B.                    7.y.y.w.r.y.r.w.w.w.6.b c p p t t t n c n c c n a t                         a n n n c a     ",
"                            w.y.r.w.w.8.7.6.6.6.b c j p t t t a n n c a n c a                   n c c a c n n c a u     ",
"                          y.w.w.7.6.6.6.6.5.5.n z p p p t t t t n n c c n c c               n n n c c n n n c a u       ",
"                          5.6.7.6.>.5.5.5.>.>.v p p p p t t t t n c n n n a             c c n n n n n n c c u a         ",
"                          y.6.>.>.b 5.>.b q.>X,Xg.p p p t t t u n n n n c u u       a c n n n n n n n c c a u           ",
"                          w.5.g.j.b n z q.7X9X0X,X6.t t t t t a c c n c j j     n c c n n n n n n n n c a               ",
"                            >.6XtX,Xq.;X0XrX0X4Xk.f.t t r t t t a m v c j     n c c n n n c c c n c c c                 ",
"              f f           q.8XiXtX5XuXyX6Xl.g.d.j.z p q.>.t p j j j p 8 v n n n n n c a c n n n c c c u u             ",
"              f f f s         1X1X3XwXrX9Xs.;.-.g.>Xu.7.j.3.4 u 9 4 2 p v >.n n n n c a c n n n c c a u u               ",
"                      f f     2Xa.a.8XyX6X-X;.p.;X,Xj.h.j.x 6 g g g u i z n n n c c c c n n c c a u u t                 ",
"                    0.*.M s     s.=X3XtX7X-X*Xl.,X>Xj.j.r.g g 6 6 g e 4 i c n n n n n n n c c a u u                     ",
"                  4.&.&.*.s y 1X8X6XqXrX8X8X4X4X<Xk.f.h.x g 6 g 6 g g u j n n n n n n n c c a t t                       ",
"                    =.0.0.  y w.yXuXeX9X0X9X7X5X:Xd.h.:.g 4 3 3 4 4 9 9 2 a n n n n c c c n                             ",
"                  @.@.+.d l ; % >X9XwXrX,Xd.e.2.d 9.:.5 1 < < X 1 4 3 9 i a c c c a u u a                               ",
"              @.[.+X`.Y.=  .| Z +.X.i.f.o.X.@.Y.| : 1 3 1 + X X < 5 3 2 t j a u u u u                                   ",
"            | oX#X%X XT.V | W.G.G.F.T.Y.T.~.M.c.L 7 3 1 * X + X X 1 1 X O u u                                           ",
"          } }.#X#X@X'.T.W ~.P.L.D.W.D.J.J.K.m.P q g 1 # D = % +   2 1 8 t                                               ",
"          ].OX&X&X.X(.~.T.^.P.J.D.L.D.D.A.n.` y i 8 $ Z W Z $ O   t u                                                   ",
"        +.|.$X#X@X'.(.(.(._.!.K.K.K.M.Y.| ` : r & B S R R R B o     t.                                                  ",
"        #.}..XOX.X).)._.Q.Q.E.U.U.( P d ,.l 8 ; Z ^ ! ^ ^ W Z @                                                         ",
"        ].`.'.(.).).)._.^.~.Y.J X.1.h 3 h d D _ ) ~ ~ ) ! U A -                                                         ",
"      +.|.`.(. X X!._.T.{.$.2.0 l l d = K ' ) x.x.x.~ ( ) Y E -                                                         ",
"      +./.(.).XXXX(.].$.1.<.O.J L / V.m.M.Z.b.x.x.x.~ ( ) ! E # O                                                       ",
"      } ^._.Q.).'.Y...,.<.l ` m.G.G.D.A.D.S.n.b.~ ! ! / / R A : 9 1 O                                                   ",
"      } ^.Q.Q.Q.U.| ..l O.' U.K.L.D.D.S.Z.S.M.c.E C G H H G = l k 1 +                                                   ",
"      } ~.Q.Q.Q.Q.Y.: : { F.D.D.D.S.S.Z.Z.H.V.P ; i i h h i O 9 :.p z t                                                 ",
"        U.W.E.L.E.c.P / G.D.D.D.S.S.A.S.S.H.` w 9 r u i g u 4 9 i c t.n                                                 ",
"        R.D.G.L.D.F.M.F.D.D.D.S.S.A.S.S.S.N.D 9 o o t t t i 9 3 9 j a c O                                               ",
"        [ G.D.D.D.D.D.D.D.S.S.S.S.A.n.S.n.{ & X $ N - & 8 t O 1 4 g t + +                                               ",
"        ` F.D.D.S.S.S.S.S.S.S.S.S.Z.n.Z.V.: 8 o V T T V = @ % 2 1 2 t +                                                 ",
"          C.D.S.A.S.S.Z.S.S.S.S.S.n.n.H.P t 7 . C T T T A B     4 2 2 n                                                 ",
"          { F.D.D.S.S.Z.Z.Z.Z.Z.v.v.N.' ; 9 o , T R R U E G       2                                                     ",
"            C.J.D.S.S.Z.v.v.v.v.v.v./ & 2 7 - Q ! R R U Z                                                               ",
"            ' I.D.S.S.Z.v.n.n.n.v.m.B O O # E ! ! U R E F                                                               ",
"              / Z.S.Z.Z.v.n.n.n.b.[ q t = S R ! U ! R Z                                                                 ",
"              C ) b.N.b.b.b.N.c.Q H i > S R ! R ! R E F                                                                 ",
"                Z ! x.~ ~ ! W F y p 9 F Q R R U ! R Z                                                                   ",
"                  ] Y ~ ~ E - 0 0 % $ S Q R U U R S                                                                     ",
"                  F W ! ! R A S A E A R U U U U A B                                                                     ",
"                    Z ^ ~ ! ^ W E E E R ^ ^ Y ^ K                                                                       ",
"                      K E Q Z D       K L _ _ Z                                                                         ",
"                                                                                                                        ",
"                                                                                                                        "
};
