/* XPM */
static char *_af0d13c39554036c905c2654188d079j7fTX6Exb38oanyc[] = {
/* columns rows colors chars-per-pixel */
"60 55 97 2 ",
"   c None",
".  c #010104",
"X  c #060509",
"o  c #0B0B0D",
"O  c #0E0D11",
"+  c #110F15",
"@  c #131315",
"#  c #181617",
"$  c #151419",
"%  c #19171D",
"&  c #1B1B1C",
"*  c #21211F",
"=  c #1E1D21",
"-  c #232323",
";  c #2A2726",
":  c #262629",
">  c #28272C",
",  c #272A29",
"<  c #2B2B2B",
"1  c #302C2A",
"2  c #34312F",
"3  c #2E2D31",
"4  c #302D35",
"5  c #2F3034",
"6  c #333333",
"7  c #3B3532",
"8  c #3B3937",
"9  c #363539",
"0  c #38373C",
"q  c #3B3B3C",
"w  c #3E3E41",
"e  c #434343",
"r  c #484443",
"t  c #464649",
"y  c #48464B",
"u  c #4B4A4B",
"i  c #494951",
"p  c #535253",
"a  c #565659",
"s  c #5C5B5C",
"d  c #5F5F61",
"f  c #615F62",
"g  c #636364",
"h  c #696765",
"j  c #6C6C6C",
"k  c #74706D",
"l  c #6D6D71",
"z  c #716F77",
"x  c #707074",
"c  c #747474",
"v  c #747476",
"b  c #737374",
"n  c #797471",
"m  c #7A7673",
"M  c #787677",
"N  c #757378",
"B  c #7F7B7A",
"V  c #7B7A7F",
"C  c #7C7C7E",
"Z  c gray50",
"A  c #7C7C7C",
"S  c #81807E",
"D  c #7F7E83",
"F  c #818181",
"G  c #808082",
"H  c #818183",
"J  c gray51",
"K  c #838184",
"L  c #848484",
"P  c #848486",
"I  c gray53",
"U  c #808081",
"Y  c #8A8582",
"T  c #8E8986",
"R  c #85838B",
"E  c #888888",
"W  c #88888A",
"Q  c #89898B",
"!  c gray54",
"~  c #8F8B88",
"^  c #8B8A8F",
"/  c gray55",
"(  c #918C89",
")  c #97928F",
"_  c #8D8B91",
"`  c #8F8D90",
"'  c #959597",
"]  c #9B9692",
"[  c #949398",
"{  c #9E9A9B",
"}  c #A9A7A8",
"|  c #AEAAAB",
" . c #AFAAAE",
".. c #BDB9BA",
"X. c #C4BEBE",
"o. c #C3C1C4",
"O. c #D2CECD",
/* pixels */
"                                                                                                        ! j g           ",
"                                                                                                      j : $ - , t       ",
"                            g j                                                       F l       h     r , v             ",
"                    , r       q y 5                                               u p 6 j     x 6 9 9 6                 ",
"                  - : - - Z !   y = w 0                   R                   v q : #     ! s $ & : <                   ",
"                    I 9 & - , e s e $ % d               i 9 3 z               : @ : s a 9 : = : s                       ",
"                        p , - - < u $ $ $ w u       _ 4 @ 4 : & u         9 6 # - - t $ : : 6 F                         ",
"                              s , - - & > 3 :       > = % @ + % = p     g : 3 & & : : 9 F                               ",
"                                u       y 6 = r   a - : u - 9 y = =     & 6 3 l     I g                                 ",
"                                          t , 9   u $ M o.} .. .y @     = : I                                           ",
"                                          c : - F 9 # S | O.X.{ p O l a = 6                                             ",
"                                            x , # , & q B ~ Y h 3 $ 6 @ p F                                             ",
"                                              p o & r h j T n k s > O > l                                               ",
"                                        F y 6 : @ o # s ( ) ] n 6 - X = 3 w s                                           ",
"                                      g $ @ X X X . ; r ; 7 7 2 9 $ . . . X @ :                                         ",
"                                    N O . . X . . # f p 8 1 1 u u 3 . . X X . . -                                       ",
"                                    < $ o X X . . = V ` f K j j ' 9 X . . X X @ @ s                                     ",
"                                      p 9 & o X $ & a [ ^ l D [ Z 9 @ o o $ & e j                                       ",
"                                          l # & > : > q g ! j p 9 , : : @ >                                             ",
"                                            : , - 9 9 9 3 6 , 6 6 9 : 6 < w                                             ",
"                                          v , : 6 $ 9 w q 9 q e q < & < - 6                                             ",
"                                        F : 6 s   q - 6 , < - 9 6 $     9 -                                             ",
"                                        < o # j     * , ; , < - - q     j - g                                           ",
"                                        , $ o Z     j * < 2 < : <         < 9                                           ",
"                                        < : h         - < 6 9 * 6         h 6 g                                         ",
"                                      t , s         s # , 9 8 - -           , ,                                         ",
"                                      - &           q 6 6 g t , q g         p - e                                       ",
"                                      : 9         q , e w g t w < - M         , 9                                       ",
"                                      , t       e O # o @ , > $ X o $ F       : y                                       ",
"                                      < s       $ $ : @ O X + % o @ @ 9       3 t                                       ",
"                                      -         = % 6 = O % = - O O & a       9 e                                       ",
"                                      &         9 = & + O @ = & O & 6 v       r w                                       ",
"                                      -         6 6 - g   d d g 6 , < t       g 9                                       ",
"                                      q       x , : :         g g & 9 9       s u                                       ",
"                                      s s     e < , g       e t M , < 6 /     s g                                       ",
"                                      s       6 9 ,         g , g g < 6 t   M   s                                       ",
"                                      ,   x g 6 : p           9     , < q F F s q                                       ",
"                                      q     w < :                   g - < s   s v                                       ",
"                                        Z h , < 6                     - , q Z                                           ",
"                                          M q 6 6                     - e 9                                             ",
"                                            9 < 9                     - 9 p                                             ",
"                                            r , 9                     # 6 Z                                             ",
"                                            h 6 <                   j : q                                               ",
"                                              9 -                   p 9 p                                               ",
"                                              p <                   e 6                                                 ",
"                                                6 h                 9 e                                                 ",
"                                                q e                 6 F                                                 ",
"                                                  , s             9 9                                                   ",
"                                                  < -           u - s                                                   ",
"                                                  e <           j <                                                     ",
"                                                  r t             ,                                                     ",
"                                                  , s             , t                                                   ",
"                                                u 6               p 6                                                   ",
"                                                u                   u Z                                                 ",
"                                                                                                                        "
};
