/* XPM */
static char *_2040f6106df43f5dde0486264b07cbdUquWqeL8R0CdmZ0a[] = {
/* columns rows colors chars-per-pixel */
"52 60 242 2 ",
"   c None",
".  c #371900",
"X  c #231B10",
"o  c #3E2612",
"O  c #373938",
"+  c #302D26",
"@  c #492C1A",
"#  c #5F3A1E",
"$  c #56341A",
"%  c #542B12",
"&  c #662E18",
"*  c #6A331D",
"=  c #66351A",
"-  c #783819",
";  c #672D0E",
":  c #472D23",
">  c #493625",
",  c #563827",
"<  c #463D37",
"1  c #6C3621",
"2  c #623D22",
"3  c #6D3A23",
"4  c #663C2A",
"5  c #743C25",
"6  c #783E27",
"7  c #3C423C",
"8  c #6B491D",
"9  c #5B432B",
"0  c #484339",
"q  c #584A38",
"w  c #634224",
"e  c #69492B",
"r  c #7B4126",
"t  c #75422B",
"y  c #7B432A",
"u  c #774A29",
"i  c #674937",
"p  c #774C36",
"a  c #68533C",
"s  c #785539",
"d  c #71512B",
"f  c #3D3F42",
"g  c #3C4145",
"h  c #454745",
"j  c #4A4C44",
"k  c #4C4E4B",
"l  c #474945",
"z  c #564C46",
"x  c #4D524D",
"c  c #475146",
"v  c #54534C",
"b  c #58564A",
"n  c #4D5455",
"m  c #525554",
"M  c #5B5B55",
"N  c #575956",
"B  c #695746",
"V  c #735B48",
"C  c #665D55",
"Z  c #6E5950",
"A  c #5D625B",
"S  c #74614E",
"D  c #7A644C",
"F  c #63635B",
"G  c #696558",
"H  c #7D6A54",
"J  c #7B6A5B",
"K  c #766758",
"L  c #756A55",
"P  c #5C6365",
"I  c #646563",
"U  c #646A63",
"Y  c #6C6C64",
"T  c #6D6E6A",
"R  c #646868",
"E  c #746E67",
"W  c #6D726B",
"Q  c #6A7367",
"!  c #747265",
"~  c #73736C",
"^  c #7B746B",
"/  c #757A6D",
"(  c #7C796C",
")  c #7C7264",
"_  c #6D7573",
"`  c #737672",
"'  c #767A74",
"]  c #7A7B74",
"[  c #7B7D79",
"{  c #787977",
"}  c #6B6F70",
"|  c #883A11",
" . c #8F3E0F",
".. c #984A19",
"X. c #934A1C",
"o. c #A2571C",
"O. c #82442B",
"+. c #87492B",
"@. c #934A27",
"#. c #975428",
"$. c #8C4D32",
"%. c #844B36",
"&. c #944D31",
"*. c #8D5233",
"=. c #845739",
"-. c #945234",
";. c #9B5434",
":. c #9C5B3A",
">. c #975939",
",. c #89552B",
"<. c #A75C26",
"1. c #A25634",
"2. c #A35B36",
"3. c #AA5C36",
"4. c #97653A",
"5. c #87643B",
"6. c #AB652A",
"7. c #B26B2D",
"8. c #B2662D",
"9. c #AC6B3C",
"0. c #AB6538",
"q. c #B36633",
"w. c #B56B32",
"e. c #B3653B",
"r. c #BB6C3C",
"t. c #B86C36",
"y. c #BE713C",
"u. c #BB7235",
"i. c #AA611D",
"p. c #C1753C",
"a. c #C97B3E",
"s. c #985D43",
"d. c #8B5B43",
"f. c #8D6646",
"g. c #986747",
"h. c #826C58",
"j. c #956C52",
"k. c #977358",
"l. c #917254",
"z. c #AC6B43",
"x. c #A66645",
"c. c #B46C42",
"v. c #BA6D41",
"b. c #B36744",
"n. c #A4744C",
"m. c #A9754A",
"M. c #B37146",
"N. c #BD7344",
"B. c #BC744A",
"V. c #B7794A",
"C. c #A97652",
"Z. c #AC7A54",
"A. c #A77A59",
"S. c #B67955",
"D. c #A56F53",
"F. c #826E61",
"G. c #837364",
"H. c #82756B",
"J. c #857B6C",
"K. c #877968",
"L. c #827C73",
"P. c #857D77",
"I. c #937B6D",
"U. c #A67C64",
"Y. c #B17B61",
"T. c #A35C40",
"R. c #C37444",
"E. c #C67A44",
"W. c #CA7D46",
"Q. c #C57C4A",
"!. c #CB7E4A",
"~. c #C4764A",
"^. c #D27D47",
"/. c #C77C53",
"(. c #7C827C",
"). c #7A8177",
"_. c #BA8356",
"`. c #BA834D",
"'. c #838175",
"]. c #83837B",
"[. c #8B837B",
"{. c #8B8678",
"}. c #948778",
"|. c #96806B",
" X c #A7856A",
".X c #B38D70",
"XX c #CD8345",
"oX c #C6834B",
"OX c #CD824B",
"+X c #CB8649",
"@X c #D48344",
"#X c #D2854C",
"$X c #D48A4C",
"%X c #DA8C4C",
"&X c #D98449",
"*X c #C48455",
"=X c #CD8452",
"-X c #C5865A",
";X c #CA8A58",
":X c #D38552",
">X c #D58A52",
",X c #DA8C53",
"<X c #D78B5A",
"1X c #DC9155",
"2X c #DD935A",
"3X c #DA9558",
"4X c #D79153",
"5X c #E3965B",
"6X c #E08A51",
"7X c #C99669",
"8X c #D69965",
"9X c #C99771",
"0X c #EB9C64",
"qX c #E69864",
"wX c #D6A677",
"eX c #CAA07A",
"rX c #F0A166",
"tX c #7C8282",
"yX c #7E8985",
"uX c #838582",
"iX c #848A83",
"pX c #8A8B84",
"aX c #898C8A",
"sX c #938D84",
"dX c #9C8F84",
"fX c #8C928B",
"gX c #859185",
"hX c #92938B",
"jX c #989385",
"kX c #8E9692",
"lX c #969C95",
"zX c #989996",
"xX c #8B8F92",
"cX c #A5968A",
"vX c #B0A496",
"bX c #A6A9A5",
"nX c #B3B6B5",
"mX c #AFB0AC",
"MX c #9AA59D",
"NX c #CBA790",
"BX c #D2C1B7",
"VX c #D1D4D1",
/* pixels */
"                                          ).A ' / Q W Q ' Y '                                           ",
"                                        U iXfX].pXiXpXhXhX].[ hX                                        ",
"                                        M pX~ ].)./ ] ] F ! ~ +                                         ",
"                                        v ] E [ L.'.].! F Y ~ ~                                         ",
"                                        sX! [.! ! L.].Y ^ C k                                           ",
"                                          F P.^ [.E sX] ~ ` v aX                                        ",
"                                      [ Y j P.'.[.F ].] F [ A h ` nX                                    ",
"                    I fX          ` ] ] M v ] Y ! ! [ [ uXW m { fX).U [         N                       ",
"                  m iXI ].  mXv ` ' ' ).U + ^ ( Y ] ' ' ' ' m ).).Q (.iX7 bX  _ yXtXbX                  ",
"                ~ ].].] Y N T zX` W Y Q Y 0 L.'.( L.'.'.] ~ N ].] F / W (.x _ gXkXtXR                   ",
"              Y ] ~ T ' [ Y F ] ).).pX'.J q ) {.{.J.J.J.) ! G jXG ( G / A c MXiXyXW ).U lX              ",
"            N { ] ' uX! [ ].b G jX( ) Z S a B a H V H D B B q J K.K.H.! j ]./ lX(.kXfXP U               ",
"            lXA uXW T ].Y ! }.q S S h.i 9 , p f.s p j.f.s s e e a S K.B G sX] ] ' ' fXP uX              ",
"              nXh pX[ ! L.( L.K i i s p d.j.g.g.>.*.Z.n.g.g.4.=.s w @ V cXG.jX].[ fXI uX                ",
"              _ x M [ Y ^ sXG q % =.f.g.g.g.x.M.x.#.S.M.9.M.V.m.j.l.e $ h.cXJ [.P.F M I                 ",
"            nXI aXN Y ! H.J > , t x.x.4.x.z.B.B.c.<.<X<XQ.N.N.c.S.=.g.s $ a F.H.C v aXI ].              ",
"            U iX[ uXO J L o w 5.,.z.M.9.N.Q.Q.!.r.q.qX:X>X!.:XQ.-X,.z._.u % 9 a C '.iXaXx zX            ",
"          hX' { ` ] ! 0 @ e 5.4.#.v.~.N.E.OXW.OXp.t.0X>X,X#X>X!.;X9.9.V.m.,.w 9 {.'.] aX` W             ",
"          M W ~ ).] L.> , 5.n.m.#.~.=X!.:X>X#X>XE.y.0X,X,X#X>XOX2X0.V.-XV.n.=.$ G.J.].iXaXk MX          ",
"        ] j F [ ].sXB 9 l.5.n._.<.Q.<XOX>X>X>X1XW.p.rX,X,X#X>XOX8X0.*X8XM.m.n.p 9 G.sX` [ N v           ",
"        pXY G b Y I., i k.n.V.V.<.OX<XOX>X,X>X2XW.p.0X,X,X#X>XOX>XN.oX;X=XV.n.D.s H ) M v I v           ",
"        ' ] ] L.K B i f.4.V.oXoX6.OX<XOX>X,X$X1XW.u.0X$X$X@X$XOX>X7.E.1X=XoXS.Z.p $ B [.P.{ T ]         ",
"      bXW ] ! }.h., =.C.z.Q.OX>X8.#X,X#X,X1X$X$Xa.u.5X$X$X@X$XXX3X6.XX5Xa.!.;Xz.Y., B H.^ T [ ~         ",
"      uX' F K G.D s f.x.-X=X#XOXw.>X2X>X1X1X$X#Xa.u.5X@X$XXX$XXX$Xy.XX$X@X^.!.S.S.p k.K.E ] I uX        ",
"      U iX/ ^ K.V p g.S.Q.!.>X$X6.4X,X#X1X$X#X#Xp.u.rX@X@XXXa.XX3X6.XX%X@Xa.W.~.S.j.s F.H.].iXU nX      ",
"      k x j C B e =.C./.Q.#X,X,X8.1X1X#X1X$X#X#Xp.u.0X@X%X@X@X$X3X7.$X%X@X@X#X!.S.D., a C v j 7 nX      ",
"v ~ zXfXlXlXvXh.$ g.-X/.OX,X,X,X8.2X1X#X,X#X#X#XW.u.0X@X%X%X%X%X3Xu.$X%X@X@X$X:XS.S.2 V }.[.].fXkXbXhXY ",
"v ! ` W A F {.H $ C.7X!.>X,X,X1X7.3X2X#X>X#X#X#X@Xp.0X$X1X1X%X$X3Xu.%X%X@X@X$X=X-X.X2 V J.( [ (.` ` T O ",
"C sX' ' W U ( H # Z.;X!.<X>XOX3X7.3X2X#X>X#X#X#X#Xp.0X#X1X1X$X#X3Xw.,X%X@X@X$X+X_._.e D H.L.fX(.] ` ].l ",
"b pX~ ).gX(.! H w C.-XoX>X#XOX3Xw.3X1XXX#X#X#X#X!.r.0X#X1X1X$X#X3Xt.1X,X@X@X$X+X;X9Xs h.H.^ pXW [ ` ` 7 ",
"G [.] ).gXiX! S w m.-XQ.OX#X+X>X7.2X1XXX#X#X:X:XE.t.0X@X6X6X&X#X<Xw.1X,X@X@X$XoX_.eXs h.{.^ ].[ ].).~ k ",
"b ^ ` ` ' ] ( H # n.;XQ.OX>X>X=X8.5X1XW.OX#X:X#XE.t.0X$X6X,X@X#X=Xq.,X%X@X@X#XoX`.wXd H jXY _ uX` ~ M 0 ",
"M ~ } T R I P.V , m.*XQ.#X#X#X>X8.5X2XOXOXOX@X#XE.t.0XOX$X,X#XXX<X0.5X&X@X^.@X!.oXwXd H '.} R _ { T m m ",
"< l f P m m z a , m.*XQ.#X@X#X>X8.2X2XW.OXOX@X#Xp.w.0XOX#X>X#XOX;X6.5X6X^.^.:X:X+X8X8 i M n n P f l O O ",
"pXpXuXl R I C i , C.*XOX#XXXOX#X<.,X,XW.OXW.OX#Xp.w.0XOX@X#X#XOX4X6.,X,X^.^.!.=XN.8X8 9 G ` P g R xXfXaX",
"      m xXzXcXh.2 C.-XOX#XXXOX#X<.>X$XE.W.W.W.OXy.q.qXW.XXOX#XOX4X<.$X@XW.W./.;X*XwXd D jXhXuXx nX      ",
"      m tXzXL.J 2 Z.;X+X#X#XOX#X<.>X#XE.OXW.W.OXp.8.qXW.W.OXOXOX$Xo.,X@X#XB.*X_._.7X= h.}.F ` M bX      ",
"      k aXpXL.G.2 Z.-X+X#XOXOX#X8.,X>XW.#XOXOX#Xp.w.qXE.W.W.OXXXXXi.5XOXQ.M.Z.Z.Z.eXd h.}.E [.v bX      ",
"      O tX` [.J 2 C.*XoX#XOXOX>Xq.,X>X!.:XOXOX#XW.w.qXE.W.OX!.W.XX7.$X=X9._. X.XA..XV V J.L.L.< bX      ",
"    VXm ` ] H.h.2 C.*XQ.OXW.OX:Xq.,X:XW.#X!.W.OX!.t.qXE.W.OX!.E.XXu.+X;X4.eXNXBX.X XD K ( F b v bX      ",
"      h ` { ) V 2 Z.*XOX!.@XOX>X<.<X>XE.!.!.OX#Xp.w.0XE.OX:XE.!.=X6.4X_.u . |.S q vXB Z ] M Y v bX      ",
"    VXm } I C a 2 Z.*X=XW.OXOX>X<.<X>XW.!.OX#X:Xy.8.qXE.OX<XOX>X4X9.V.wX$ V }.}.K G.B b T T Y O bX      ",
"P.pX] O k l < > 2 Z.-X=XE.!.!.<X<.<X<X!.OXOX#X:XE.q.0X!.OX<XOX=X;X#.7Xn. XvXz }.BX}.0 < j x v l A lXuX[ ",
"0 E pXfXzXzX[.H # Z.*X=XE.E.E.:X<.2X2XOX#XOXOX:X!.q.0XOX!.:X!.Q.8X0.7X,.l.> 0 X H.J.+ ^ pXiX).fXU ].A 0 ",
"G ].{ ` } [ [.K.$ C.*X=XE.W.E.:X<.,X<XOX:XOXOX:Xp.<.qXOX!.:XOX!.<X9.-X4.s q G > V F.: ) ] W U _ ].pXY l ",
"v [.[ uX[ [ H.V $ C.*X=XE.W.Q.=X..:X<X!.OX!.OX>Xy.o.qX!.W.OXOX!.=X#.;X4.e }.Z J I.i : K ! A Q gXpXiX~ k ",
"z ].W (.tX` L.S # Z.S.Q.R.E.R.!...OX>X!.!.!.!.:XR.o.5X!.R.!.!.R.OX#.-X_.$ a }.|.9 @ @ G.zXF Q ).iX[ W j ",
"G hX` (.iXY ) V 2 C.V.N.y.R.N.E...OX>XW.!.E.Q.!.R.o.2XW.y.E.!.Q.=X#.*X4.= % . . %  X, K jX/ gX).] ~ T k ",
"b ].Q iX/ / J.V # g.-XB.N.r.e.r. .!.Q.R.R.#XR.Q.r...qXR.r.!.R.R.Q.#.B.M.z.S.S.S.Y.NX@ H }.'.] ] (.~ T k ",
"M pX).fX/ ! L V w j._.B.c.c.b.v. .!.~.r.R.!.R.R.e...qXr.q.R.r.v.B.@.B.c.9.B.z.x.g..X4 S J.P.] ).pX{ I l ",
"+ b N v c b q a w g.S.z.9.e.0.c.| !.R.r.v.~.v.N.e...<Xq.3.r.e.v.M.X.z.0.0.x.:.*.>.U., , z C v m x l O + ",
"lXlXfXc A ! G S , d.x.:.2.2.2.0.| ~.v.e.e.v.e.v.3.@.:X3.3.e.3.e.z.X.0.2.;.:.-.,.=.A.$ , G Y Y m { hXhXaX",
"      v (.iX'.G.$ =.s.-.;.;.;.2.| B.b.3.3.b.3.b.1.@./.1.1.2.1.2.0.| x.:.+.*.$.+.u U., K dXL.uXm         ",
"      7 ' ' ( F., s d.*.>.;.-.:.- b.T.1.2.T.2.b.;.@./.1.1.1.;.1.:.- x.>.+.+.O.t t U.> K.sXY [ l bX      ",
"      x (.] ^ G., p =.+.*.$.+.-.; x.:.-.;.:.;.T.&.@.S.&.;.&.&.-.-.; >.*.- r r t 3 k.@ F.L.~ uXN         ",
"      m tX[ G G.> p p t O.O.r +.; s.-.+.$.-.$.>.+.O.x.O.+.O.O.+.*.; $.r - 6 t t 2 h.@ J ^ P.{ n         ",
"      N tXT E Z , e p y t t t 6 * $.-.O.O.$.*.$.O.O.s.O.r O.6 O.r & r y - 5 5 t 4 s : Z L.~ uXN bX      ",
"      m [ T E K , i p t 6 t t t & O.%.6 6 O.%.O.y y s.r 6 r 6 r t = 5 t 5 5 5 t 4 s , Z P.{ aXR bX      ",
"      h R M C z > 4 t 3 1 3 3 3 & O.%.6 6 y y y 5 6 d.5 3 5 1 5 5 & 3 5 * * 3 3 4 i , B E T { N         ",
"      O n l z < : , 4 1 * * 1 * % 5 6 * * 1 1 * 1 1 %.* * * & 1 1 % = * & & * = % , o > 0 h l O         "
};
